<svg xmlns="http://www.w3.org/2000/svg" viewBox="0 0 200 220" fill="none">
  <!-- Shield shape -->
  <path d="M100 10 L185 55 L185 140 Q185 185 100 210 Q15 185 15 140 L15 55 Z" fill="#0A5C36" stroke="#064E3B" stroke-width="3"/>
  <!-- Inner shield border -->
  <path d="M100 22 L175 62 L175 138 Q175 178 100 200 Q25 178 25 138 L25 62 Z" fill="none" stroke="#D97706" stroke-width="2"/>
  <!-- Book icon -->
  <rect x="70" y="70" width="60" height="45" rx="3" fill="#FFFFFF" opacity="0.9"/>
  <line x1="100" y1="70" x2="100" y2="115" stroke="#0A5C36" stroke-width="2"/>
  <line x1="75" y1="82" x2="95" y2="82" stroke="#0A5C36" stroke-width="1.5" opacity="0.5"/>
  <line x1="75" y1="90" x2="95" y2="90" stroke="#0A5C36" stroke-width="1.5" opacity="0.5"/>
  <line x1="75" y1="98" x2="95" y2="98" stroke="#0A5C36" stroke-width="1.5" opacity="0.5"/>
  <line x1="105" y1="82" x2="125" y2="82" stroke="#0A5C36" stroke-width="1.5" opacity="0.5"/>
  <line x1="105" y1="90" x2="125" y2="90" stroke="#0A5C36" stroke-width="1.5" opacity="0.5"/>
  <line x1="105" y1="98" x2="125" y2="98" stroke="#0A5C36" stroke-width="1.5" opacity="0.5"/>
  <!-- Torch / flame above book -->
  <line x1="100" y1="45" x2="100" y2="65" stroke="#D97706" stroke-width="3" stroke-linecap="round"/>
  <ellipse cx="100" cy="40" rx="6" ry="10" fill="#D97706"/>
  <ellipse cx="100" cy="38" rx="3" ry="6" fill="#F59E0B"/>
  <!-- DPS text -->
  <text x="100" y="145" text-anchor="middle" font-family="sans-serif" font-weight="700" font-size="28" fill="#FFFFFF" letter-spacing="4">DPS</text>
  <!-- School name -->
  <text x="100" y="168" text-anchor="middle" font-family="sans-serif" font-weight="500" font-size="9" fill="#D1FAE5" letter-spacing="1.5">PALI DISTRICT</text>
</svg>
